<?xml version="1.0" encoding="utf-8"?>
<!-- Generator: Adobe Illustrator 25.0.0, SVG Export Plug-In . SVG Version: 6.00 Build 0)  -->
<svg version="1.1" id="Layer_3" xmlns="http://www.w3.org/2000/svg" xmlns:xlink="http://www.w3.org/1999/xlink" x="0px" y="0px"
	 viewBox="0 0 155.2 41.6" style="enable-background:new 0 0 155.2 41.6;" xml:space="preserve">
<style type="text/css">
	.st0{fill:#00BFD8;}
	.st1{fill:#FFFFFF;}
</style>
<circle class="st0" cx="20.8" cy="20.8" r="20.8"/>
<g>
	<path d="M63.2,13.3h-5.8v15h-2.1v-15h-5.8v-1.9h13.8V13.3z"/>
	<path d="M68.2,28.6c-0.9,0-1.8-0.2-2.6-0.5c-0.8-0.3-1.4-0.8-2-1.4c-0.6-0.6-1-1.3-1.3-2c-0.3-0.8-0.5-1.6-0.5-2.5
		c0-1.2,0.3-2.2,0.8-3.2c0.5-1,1.3-1.7,2.3-2.3c1-0.6,2.1-0.9,3.3-0.9c1.3,0,2.3,0.3,3.3,0.9c0.9,0.6,1.7,1.4,2.2,2.3
		c0.5,1,0.8,2,0.8,3.1c0,0.2,0,0.3,0,0.5c0,0.2,0,0.3,0,0.3H64.1c0.1,0.8,0.3,1.5,0.7,2.1c0.4,0.6,0.9,1.1,1.5,1.5
		c0.6,0.4,1.3,0.5,2,0.5c0.8,0,1.5-0.2,2.2-0.6c0.7-0.4,1.1-0.9,1.4-1.5l1.8,0.5c-0.3,0.6-0.7,1.1-1.2,1.6c-0.5,0.5-1.2,0.9-1.9,1.1
		C69.8,28.5,69,28.6,68.2,28.6z M64,21.4h8.5c-0.1-0.8-0.3-1.5-0.7-2.1c-0.4-0.6-0.9-1.1-1.5-1.4s-1.3-0.5-2.1-0.5
		c-0.7,0-1.4,0.2-2,0.5s-1.1,0.8-1.5,1.4C64.3,19.9,64.1,20.6,64,21.4z"/>
	<path d="M95.6,28.4h-2.1v-6.9c0-1.3-0.2-2.2-0.6-2.9c-0.4-0.6-1-0.9-1.9-0.9c-0.8,0-1.6,0.3-2.3,0.9s-1.2,1.4-1.5,2.4v7.4h-2.1
		v-6.9c0-1.3-0.2-2.3-0.6-2.9s-1-0.9-1.9-0.9c-0.8,0-1.6,0.3-2.3,0.9c-0.7,0.6-1.2,1.4-1.5,2.3v7.5h-2.1V16h1.9v2.7
		c0.5-0.9,1.2-1.6,2-2.1s1.7-0.7,2.7-0.7c1,0,1.9,0.3,2.5,0.8c0.6,0.6,1,1.3,1.1,2.2c0.6-1,1.2-1.7,2-2.2c0.8-0.5,1.7-0.8,2.7-0.8
		c0.7,0,1.3,0.1,1.8,0.4c0.5,0.3,0.9,0.6,1.2,1.1c0.3,0.5,0.5,1,0.6,1.6c0.1,0.6,0.2,1.3,0.2,2.1V28.4z"/>
	<path d="M105.5,28.6c-1,0-1.9-0.3-2.7-0.8s-1.4-1.1-1.9-1.9v7.5h-2.1V16h1.9v2.3c0.5-0.8,1.1-1.4,1.9-1.8c0.8-0.5,1.7-0.7,2.6-0.7
		c0.9,0,1.6,0.2,2.4,0.5c0.7,0.3,1.3,0.8,1.9,1.4c0.5,0.6,0.9,1.3,1.2,2c0.3,0.8,0.4,1.6,0.4,2.4c0,1.2-0.2,2.2-0.7,3.2
		s-1.1,1.8-2,2.3C107.6,28.3,106.6,28.6,105.5,28.6z M104.9,26.8c0.6,0,1.2-0.1,1.7-0.4s0.9-0.6,1.3-1c0.4-0.4,0.6-0.9,0.8-1.5
		c0.2-0.5,0.3-1.1,0.3-1.7c0-0.6-0.1-1.2-0.3-1.7s-0.5-1-0.9-1.5c-0.4-0.4-0.8-0.8-1.4-1c-0.5-0.2-1.1-0.4-1.7-0.4
		c-0.4,0-0.8,0.1-1.2,0.2c-0.4,0.1-0.8,0.3-1.2,0.6c-0.4,0.3-0.7,0.6-0.9,0.9c-0.3,0.3-0.4,0.7-0.5,1.1v3.5c0.2,0.5,0.6,1,1,1.5
		s0.9,0.8,1.4,1C103.8,26.6,104.3,26.8,104.9,26.8z"/>
	<path d="M113.7,10.9h2.1v14.3c0,0.7,0.1,1.1,0.3,1.3c0.2,0.2,0.4,0.2,0.7,0.2c0.3,0,0.7,0,1-0.1s0.6-0.1,0.8-0.2l0.3,1.7
		c-0.4,0.1-0.8,0.3-1.2,0.4c-0.5,0.1-0.9,0.1-1.3,0.1c-0.8,0-1.5-0.2-1.9-0.7s-0.7-1.1-0.7-1.9V10.9z"/>
	<path d="M119.5,24.8c0-0.8,0.2-1.5,0.7-2c0.5-0.6,1.1-1,1.9-1.3s1.7-0.5,2.8-0.5c0.6,0,1.1,0,1.8,0.1s1.2,0.2,1.6,0.4v-0.9
		c0-0.9-0.3-1.7-0.9-2.2s-1.4-0.8-2.4-0.8c-0.7,0-1.3,0.1-2,0.4c-0.6,0.2-1.3,0.6-2,1.1l-0.8-1.5c0.8-0.6,1.6-1,2.4-1.3
		c0.8-0.3,1.7-0.4,2.5-0.4c1.6,0,2.8,0.4,3.8,1.3c0.9,0.9,1.4,2.1,1.4,3.7V26c0,0.3,0.1,0.4,0.2,0.6c0.1,0.1,0.3,0.2,0.5,0.2v1.6
		c-0.2,0-0.4,0.1-0.5,0.1s-0.3,0-0.4,0c-0.5,0-0.9-0.1-1.1-0.4s-0.4-0.6-0.4-0.9l0-0.8c-0.5,0.7-1.2,1.2-2.1,1.6
		c-0.9,0.4-1.7,0.6-2.6,0.6c-0.8,0-1.6-0.2-2.2-0.5c-0.7-0.3-1.2-0.8-1.5-1.4C119.7,26.1,119.5,25.5,119.5,24.8z M127.6,25.6
		c0.2-0.2,0.3-0.4,0.5-0.7s0.2-0.4,0.2-0.6v-1.5c-0.5-0.2-1-0.3-1.5-0.4c-0.5-0.1-1.1-0.2-1.6-0.2c-1.1,0-1.9,0.2-2.6,0.6
		c-0.7,0.4-1,1-1,1.7c0,0.4,0.1,0.8,0.3,1.1c0.2,0.4,0.5,0.7,1,0.9s0.9,0.4,1.6,0.4c0.7,0,1.3-0.1,1.9-0.4S127.3,26,127.6,25.6z"/>
	<path d="M140,27.8c-0.2,0.1-0.4,0.2-0.7,0.3s-0.7,0.2-1,0.3c-0.4,0.1-0.8,0.1-1.3,0.1c-0.5,0-1-0.1-1.4-0.3s-0.8-0.5-1-0.9
		c-0.3-0.4-0.4-0.9-0.4-1.5v-8.4h-1.7V16h1.7v-4.1h2.1V16h2.8v1.6h-2.8v7.7c0,0.4,0.2,0.8,0.5,1c0.3,0.2,0.6,0.3,1,0.3
		c0.4,0,0.8-0.1,1.1-0.2c0.3-0.1,0.6-0.2,0.7-0.3L140,27.8z"/>
	<path d="M147.3,28.6c-0.9,0-1.8-0.2-2.6-0.5c-0.8-0.3-1.4-0.8-2-1.4s-1-1.3-1.3-2c-0.3-0.8-0.5-1.6-0.5-2.5c0-1.2,0.3-2.2,0.8-3.2
		c0.5-1,1.3-1.7,2.3-2.3s2.1-0.9,3.3-0.9c1.3,0,2.3,0.3,3.3,0.9c0.9,0.6,1.7,1.4,2.2,2.3c0.5,1,0.8,2,0.8,3.1c0,0.2,0,0.3,0,0.5
		c0,0.2,0,0.3,0,0.3h-10.3c0.1,0.8,0.3,1.5,0.7,2.1c0.4,0.6,0.9,1.1,1.5,1.5c0.6,0.4,1.3,0.5,2,0.5c0.8,0,1.5-0.2,2.2-0.6
		c0.7-0.4,1.1-0.9,1.4-1.5l1.8,0.5c-0.3,0.6-0.7,1.1-1.2,1.6c-0.5,0.5-1.2,0.9-1.9,1.1C149,28.5,148.2,28.6,147.3,28.6z M143.1,21.4
		h8.5c-0.1-0.8-0.3-1.5-0.7-2.1c-0.4-0.6-0.9-1.1-1.5-1.4s-1.3-0.5-2.1-0.5c-0.7,0-1.4,0.2-2,0.5s-1.1,0.8-1.5,1.4
		C143.4,19.9,143.2,20.6,143.1,21.4z"/>
</g>
<g>
	<path class="st1" d="M16,27.3c0-0.2,0-0.4,0-0.6c0-0.2,0.1-0.4,0.1-0.7l1.5-6.9h-1.8l0.9-4.2h1.8l1-4.9h5.6l-1,4.9H27L26.1,19h-2.9
		L22.1,24c0,0.1,0,0.2,0,0.3c0,0.1,0,0.2,0,0.2c0,0.3,0.1,0.5,0.2,0.6s0.4,0.2,0.6,0.2c0.2,0,0.3,0,0.5-0.1s0.4-0.1,0.7-0.2
		s0.5-0.2,0.8-0.3l0.1,4.4c-0.6,0.2-1.2,0.4-1.8,0.6c-0.6,0.2-1.2,0.3-1.8,0.4c-0.6,0.1-1.2,0.1-1.7,0.1c-1.1,0-1.9-0.2-2.7-0.7
		S16,28.4,16,27.3z"/>
</g>
</svg>
